<svg xmlns="http://www.w3.org/2000/svg" viewBox="0 0 222 130">
  <path d="M80,0A10,10,0,0,0,70,10V45a44,44,0,0,0-25-8C20,37,0,58,0,84s20,46,45,46a45,45,0,0,0,25-8,10,10,0,0,0,10,8,10,10,0,0,0,10-10V84h0V10A10,10,0,0,0,80,0ZM62,102a24,24,0,0,1-17,8,24,24,0,0,1-17-8,27,27,0,0,1,0-37,24,24,0,0,1,17-8,24,24,0,0,1,17,8,27,27,0,0,1,0,37Z" />
  <path d="M174,37a10,10,0,0,0-10,10V91a19,19,0,0,1-19,19,19,19,0,0,1-19-19V47a10,10,0,0,0-10-10,10,10,0,0,0-10,10V91a39,39,0,0,0,39,39c21,0,39-17,39-39V47C184,42,180,37,174,37Z" />
  <path d="M212,0a10,10,0,0,0-10,10v4a10,10,0,0,0,10,10,10,10,0,0,0,10-10V10A10,10,0,0,0,212,0Z" />
  <path d="M212,37a10,10,0,0,0-10,10v72a10,10,0,0,0,10,10,10,10,0,0,0,10-10V47A10,10,0,0,0,212,37Z" />
</svg>
